<svg width="187" height="114" viewBox="0 0 187 114" fill="none" xmlns="http://www.w3.org/2000/svg">
    <path d="M57.792 19.6C62.256 19.6 66.12 20.344 69.384 21.832C72.696 23.32 75.24 25.432 77.016 28.168C78.792 30.904 79.68 34.144 79.68 37.888C79.68 41.584 78.792 44.824 77.016 47.608C75.24 50.344 72.696 52.456 69.384 53.944C66.12 55.384 62.256 56.104 57.792 56.104H47.64V70H35.976V19.6H57.792ZM57.144 46.6C60.648 46.6 63.312 45.856 65.136 44.368C66.96 42.832 67.872 40.672 67.872 37.888C67.872 35.056 66.96 32.896 65.136 31.408C63.312 29.872 60.648 29.104 57.144 29.104H47.64V46.6H57.144ZM88.0073 19.6H99.6713V70H88.0073V19.6ZM143.384 70L131.216 52.504L119.264 70H105.872L124.52 44.368L106.808 19.6H120.056L131.648 35.944L143.024 19.6H155.624L138.056 43.936L156.848 70H143.384Z" fill="#00E0B8" />
    <path d="M15.048 105.432C12.48 105.432 10.152 104.88 8.064 103.776C6 102.648 4.368 101.1 3.168 99.132C1.992 97.14 1.404 94.896 1.404 92.4C1.404 89.904 1.992 87.672 3.168 85.704C4.368 83.712 6 82.164 8.064 81.06C10.152 79.932 12.492 79.368 15.084 79.368C17.268 79.368 19.236 79.752 20.988 80.52C22.764 81.288 24.252 82.392 25.452 83.832L21.708 87.288C20.004 85.32 17.892 84.336 15.372 84.336C13.812 84.336 12.42 84.684 11.196 85.38C9.972 86.052 9.012 87 8.316 88.224C7.644 89.448 7.308 90.84 7.308 92.4C7.308 93.96 7.644 95.352 8.316 96.576C9.012 97.8 9.972 98.76 11.196 99.456C12.42 100.128 13.812 100.464 15.372 100.464C17.892 100.464 20.004 99.468 21.708 97.476L25.452 100.932C24.252 102.396 22.764 103.512 20.988 104.28C19.212 105.048 17.232 105.432 15.048 105.432ZM37.5424 105.288C35.5024 105.288 33.6664 104.868 32.0344 104.028C30.4264 103.164 29.1664 101.976 28.2544 100.464C27.3424 98.952 26.8864 97.236 26.8864 95.316C26.8864 93.396 27.3424 91.68 28.2544 90.168C29.1664 88.656 30.4264 87.48 32.0344 86.64C33.6664 85.776 35.5024 85.344 37.5424 85.344C39.5824 85.344 41.4064 85.776 43.0144 86.64C44.6224 87.48 45.8824 88.656 46.7944 90.168C47.7064 91.68 48.1624 93.396 48.1624 95.316C48.1624 97.236 47.7064 98.952 46.7944 100.464C45.8824 101.976 44.6224 103.164 43.0144 104.028C41.4064 104.868 39.5824 105.288 37.5424 105.288ZM37.5424 100.68C38.9824 100.68 40.1584 100.2 41.0704 99.24C42.0064 98.256 42.4744 96.948 42.4744 95.316C42.4744 93.684 42.0064 92.388 41.0704 91.428C40.1584 90.444 38.9824 89.952 37.5424 89.952C36.1024 89.952 34.9144 90.444 33.9784 91.428C33.0424 92.388 32.5744 93.684 32.5744 95.316C32.5744 96.948 33.0424 98.256 33.9784 99.24C34.9144 100.2 36.1024 100.68 37.5424 100.68ZM63.6882 85.344C66.0882 85.344 68.0202 86.064 69.4842 87.504C70.9722 88.944 71.7162 91.08 71.7162 93.912V105H66.1002V94.776C66.1002 93.24 65.7642 92.1 65.0922 91.356C64.4202 90.588 63.4482 90.204 62.1762 90.204C60.7602 90.204 59.6322 90.648 58.7922 91.536C57.9522 92.4 57.5322 93.696 57.5322 95.424V105H51.9162V85.632H57.2802V87.9C58.0242 87.084 58.9482 86.46 60.0522 86.028C61.1562 85.572 62.3682 85.344 63.6882 85.344ZM95.6793 85.632L87.5073 105H81.7113L73.5753 85.632H79.3713L84.7353 98.808L90.2793 85.632H95.6793ZM116.416 95.388C116.416 95.46 116.38 95.964 116.308 96.9H101.656C101.92 98.1 102.544 99.048 103.528 99.744C104.512 100.44 105.736 100.788 107.2 100.788C108.208 100.788 109.096 100.644 109.864 100.356C110.656 100.044 111.388 99.564 112.06 98.916L115.048 102.156C113.224 104.244 110.56 105.288 107.056 105.288C104.872 105.288 102.94 104.868 101.26 104.028C99.5796 103.164 98.2836 101.976 97.3716 100.464C96.4596 98.952 96.0036 97.236 96.0036 95.316C96.0036 93.42 96.4476 91.716 97.3356 90.204C98.2476 88.668 99.4836 87.48 101.044 86.64C102.628 85.776 104.392 85.344 106.336 85.344C108.232 85.344 109.948 85.752 111.484 86.568C113.02 87.384 114.22 88.56 115.084 90.096C115.972 91.608 116.416 93.372 116.416 95.388ZM106.372 89.592C105.1 89.592 104.032 89.952 103.168 90.672C102.304 91.392 101.776 92.376 101.584 93.624H111.124C110.932 92.4 110.404 91.428 109.54 90.708C108.676 89.964 107.62 89.592 106.372 89.592ZM125.519 88.188C126.191 87.252 127.091 86.544 128.219 86.064C129.371 85.584 130.691 85.344 132.179 85.344V90.528C131.555 90.48 131.135 90.456 130.919 90.456C129.311 90.456 128.051 90.912 127.139 91.824C126.227 92.712 125.771 94.056 125.771 95.856V105H120.155V85.632H125.519V88.188ZM148.678 104.064C148.126 104.472 147.442 104.784 146.626 105C145.834 105.192 144.994 105.288 144.106 105.288C141.802 105.288 140.014 104.7 138.742 103.524C137.494 102.348 136.87 100.62 136.87 98.34V90.384H133.882V86.064H136.87V81.348H142.486V86.064H147.31V90.384H142.486V98.268C142.486 99.084 142.69 99.72 143.098 100.176C143.53 100.608 144.13 100.824 144.898 100.824C145.786 100.824 146.542 100.584 147.166 100.104L148.678 104.064ZM170.205 95.388C170.205 95.46 170.169 95.964 170.097 96.9H155.445C155.709 98.1 156.333 99.048 157.317 99.744C158.301 100.44 159.525 100.788 160.989 100.788C161.997 100.788 162.885 100.644 163.653 100.356C164.445 100.044 165.177 99.564 165.849 98.916L168.837 102.156C167.013 104.244 164.349 105.288 160.845 105.288C158.661 105.288 156.729 104.868 155.049 104.028C153.369 103.164 152.073 101.976 151.161 100.464C150.249 98.952 149.793 97.236 149.793 95.316C149.793 93.42 150.237 91.716 151.125 90.204C152.037 88.668 153.273 87.48 154.833 86.64C156.417 85.776 158.181 85.344 160.125 85.344C162.021 85.344 163.737 85.752 165.273 86.568C166.809 87.384 168.009 88.56 168.873 90.096C169.761 91.608 170.205 93.372 170.205 95.388ZM160.161 89.592C158.889 89.592 157.821 89.952 156.957 90.672C156.093 91.392 155.565 92.376 155.373 93.624H164.913C164.721 92.4 164.193 91.428 163.329 90.708C162.465 89.964 161.409 89.592 160.161 89.592ZM179.308 88.188C179.98 87.252 180.88 86.544 182.008 86.064C183.16 85.584 184.48 85.344 185.968 85.344V90.528C185.344 90.48 184.924 90.456 184.708 90.456C183.1 90.456 181.84 90.912 180.928 91.824C180.016 92.712 179.56 94.056 179.56 95.856V105H173.944V85.632H179.308V88.188Z" fill="white" />
</svg>